# xmcd
#
# Track frame offsets:
#	150
#	16958
#	29828
#	45962
#	61813
#	76379
#	95738
#	109714
#	125890
#	143473
#	157526
#	176293
#
# Disc length: 2625 seconds
#
# Revision: 3
# Processed by: cddbd v1.5.2PL0 Copyright (c) Steve Scherf et al.
# Submitted via: EasyCDDAExtractor 15.3.0.1
#
DISCID=8d0a3f0c
DTITLE=Juanes - P.A.R.C.E.
DYEAR=2010
DGENRE=Latin
TTITLE0=Quimera
TTITLE1=Regalito
TTITLE2=Amigos
TTITLE3=Yerbatero
TTITLE4=La Soledad
TTITLE5=La Razon
TTITLE6=Segovia
TTITLE7=El Amor Lo Cura Todo
TTITLE8=Todos Los Dias
TTITLE9=Y No Regresas
TTITLE10=Lo Nuestro
TTITLE11=Esta Noche
EXTD=
EXTT0=
EXTT1=
EXTT2=
EXTT3=
EXTT4=
EXTT5=
EXTT6=
EXTT7=
EXTT8=
EXTT9=
EXTT10=
EXTT11=
PLAYORDER=
